#!OML:ASF F:\VICON\USERDATA\INSTALL\Justin_Nancy\Justin_Nancy.ASF
:FULLY-SPECIFIED
:DEGREES
49
root 7.74641 16.8517 -3.21558 -2.94846 -45.3819 19.2138
lowerback 11.8236 -2.16129 -10.4668
upperback -1.20584 -4.43931 -0.400852
thorax -7.20179 -1.75886 6.2297
lowerneck -20.1957 0.149048 -9.40232
upperneck 17.987 1.77103 5.67871
head 8.81476 0.800483 3.72884
rclavicle -7.71285e-014 2.14687e-014
rhumerus -67.5278 14.5732 -92.9918
rradius 118.874
rwrist -7.80225
rhand -14.2725 28.0631
rfingers 7.12502
rthumb 11.8664 -1.58064
lclavicle -7.71285e-014 2.14687e-014
lhumerus -35.3803 -10.2928 86.1632
lradius 122.742
lwrist 45.71
lhand -13.1395 8.9626
lfingers 7.12502
lthumb 12.9587 38.5402
rfemur -49.8327 -4.85641 34.0454
rtibia 53.6037
rfoot -5.91702 12.9688
rtoes -0.859834
lfemur 13.4636 -1.73738 -31.4897
ltibia 24.8054
lfoot 16.5346 -14.7757
ltoes -19.9421
50
root 7.53023 16.9094 -2.659 -4.22828 -45.9027 20.4935
lowerback 11.9702 -2.28774 -11.0964
upperback -1.19776 -4.71552 -0.364387
thorax -7.17956 -1.86929 6.67175
lowerneck -16.0254 0.536475 -11.994
upperneck 15.4102 2.48395 6.01217
head 7.13319 1.03777 4.20037
rclavicle 1.90833e-014 -2.62396e-014
rhumerus -67.5433 14.7409 -92.1303
rradius 118.64
rwrist -7.64119
rhand -14.8152 27.9502
rfingers 7.12502
rthumb 11.343 -1.72304
lclavicle 1.90833e-014 -2.62396e-014
lhumerus -35.9978 -10.4901 86.7771
lradius 121.906
lwrist 44.8571
lhand -12.9861 8.78529
lfingers 7.12502
lthumb 13.1066 38.3534
rfemur -48.2738 -6.01597 34.6664
rtibia 48.6952
rfoot -3.72698 13.7575
rtoes 4.92526
lfemur 14.1205 -2.23641 -32.9713
ltibia 25.8895
lfoot 16.9912 -16.4598
ltoes -12.0506
51
root 7.3422 16.9076 -2.18079 -4.86688 -45.162 22.3451
lowerback 11.879 -2.70861 -12.5127
upperback -1.44124 -5.50098 -0.475659
thorax -7.13934 -2.19117 7.45461
lowerneck -16.1079 0.394121 -12.6863
upperneck 15.158 2.44469 6.15425
head 7.06041 1.00077 4.35109
rclavicle -3.81667e-014 1.66979e-014
rhumerus -67.1754 14.4048 -91.5226
rradius 118.344
rwrist -7.1906
rhand -15.6701 28.0439
rfingers 7.12502
rthumb 10.5184 -1.67296
lclavicle -3.81667e-014 1.66979e-014
lhumerus -36.4568 -11.1348 87.3819
lradius 120.927
lwrist 43.9853
lhand -12.7517 9.23913
lfingers 7.12502
lthumb 13.3325 38.7926
rfemur -48.4521 -7.8077 35.3455
rtibia 44.3366
rfoot -2.30682 13.6067
rtoes -0.386524
lfemur 13.2308 -1.89007 -33.7711
ltibia 27.6913
lfoot 18.8343 -14.4372
ltoes 2.88676
52
root 7.13919 16.893 -1.67304 -6.09806 -45.0131 24.3082
lowerback 11.6058 -2.65493 -13.5083
upperback -1.28329 -5.57986 -1.1732
thorax -6.78494 -2.24273 7.22831
lowerneck -16.665 0.259223 -11.7332
upperneck 15.3487 2.14177 5.93286
head 7.26056 0.890562 4.10765
rclavicle 2.88238e-014 2.14687e-014
rhumerus -66.6796 12.7175 -91.2403
rradius 118.184
rwrist -6.51586
rhand -15.7674 28.1505
rfingers 7.12502
rthumb 10.4245 -1.57102
lclavicle 2.88238e-014 2.14687e-014
lhumerus -36.7157 -12.8128 87.7375
lradius 119.723
lwrist 43.4861
lhand -12.5257 9.36573
lfingers 7.12502
lthumb 13.5503 38.9048
rfemur -47.7451 -8.82811 35.2694
rtibia 40.593
rfoot -0.770042 12.9638
rtoes -1.6039
lfemur 12.5228 -0.675509 -34.8447
ltibia 30.5904
lfoot 16.2313 -14.8522
ltoes -8.30561
53
root 6.91449 16.9026 -1.14258 -6.89625 -45.3314 25.0839
lowerback 11.2551 -2.28037 -13.4716
upperback -0.85112 -5.02772 -1.74691
thorax -6.28808 -2.04619 6.47159
lowerneck -17.2861 -0.194068 -10.7389
upperneck 15.4251 1.39152 5.70602
head 7.47199 0.573863 3.80363
rclavicle 1.2762e-013 -2.38542e-014
rhumerus -65.9371 10.416 -90.7679
rradius 117.935
rwrist -5.90943
rhand -15.4758 28.2353
rfingers 7.12502
rthumb 10.7059 -1.4719
lclavicle 1.2762e-013 -2.38542e-014
lhumerus -36.7059 -15.0991 88.1199
lradius 118.243
lwrist 43.3279
lhand -13.0615 9.24964
lfingers 7.12502
lthumb 13.034 38.8224
rfemur -45.7362 -9.04733 35.2865
rtibia 37.1294
rfoot 0.770243 11.6814
rtoes 1.79476
lfemur 11.6329 0.397439 -35.0841
ltibia 34.6283
lfoot 12.9181 -14.0977
ltoes -22.7983
54
root 6.68538 16.933 -0.634012 -6.80596 -45.4023 24.8073
lowerback 11.0873 -2.12897 -12.9932
upperback -0.628747 -4.71826 -1.81507
thorax -6.0523 -1.93915 6.07556
lowerneck -17.0687 -0.645589 -10.8463
upperneck 14.9975 0.752735 5.88429
head 7.34942 0.288534 3.80109
rclavicle 2.32578e-014 4.53229e-014
rhumerus -65.4146 8.70998 -90.2534
rradius 117.724
rwrist -5.66944
rhand -15.4642 28.271
rfingers 7.12502
rthumb 10.717 -1.43569
lclavicle 2.32578e-014 4.53229e-014
lhumerus -36.9122 -16.7519 88.7203
lradius 116.563
lwrist 43.1233
lhand -14.038 9.16811
lfingers 7.12502
lthumb 12.0925 38.7987
rfemur -43.856 -9.40772 35.9966
rtibia 34.2205
rfoot 1.98589 11.0139
rtoes -1.77841
lfemur 10.0856 0.763246 -34.2479
ltibia 39.0658
lfoot 12.647 -11.163
ltoes -23.6112
